<svg width="50" height="50" viewBox="0 0 50 50" fill="none" xmlns="http://www.w3.org/2000/svg">
<g clip-path="url(#clip0)">
<path d="M50 27.7472C50 26.0933 49.0949 24.6032 47.6381 23.8582C46.1524 23.0985 44.2288 22.7132 41.9207 22.7132H16.8304C16.6497 21.8117 16.2494 20.9925 15.6489 20.325L12.0908 16.3697C11.2104 15.3909 9.94512 14.7965 8.52832 14.6963L7.88916 14.6511C7.56191 14.6276 7.22939 14.6738 6.91025 14.7808V12.6899C6.91025 11.9575 6.60176 11.296 6.10859 10.8274C6.60869 10.228 6.91025 9.45727 6.91025 8.61743C6.91025 6.71226 5.36025 5.16235 3.45518 5.16235C1.5501 5.16235 0 6.71235 0 8.61753C0 9.45747 0.301562 10.2281 0.80166 10.8275C0.308496 11.2962 0 11.9576 0 12.69V43.861C0 44.4002 0.437207 44.8375 0.976562 44.8375H4.34717C4.85088 44.8375 5.27197 44.4544 5.31943 43.9529C5.43574 42.7231 6.08604 39.3457 7.69717 37.8312H10.3121C10.8515 37.8312 11.2887 37.3939 11.2887 36.8546C11.2887 36.3154 10.8515 35.8781 10.3121 35.8781L1.95303 35.878V27.2807L14.9878 27.2804V29.8252C14.9878 31.3309 16.2127 32.5559 17.7185 32.5559H17.7187H47.2694C47.5315 32.5559 47.7955 32.5178 48.0468 32.4432V35.8781H42.6653C42.6646 35.8781 42.6638 35.8782 42.6629 35.8782H18.9049C18.3655 35.8782 17.9283 36.3155 17.9283 36.8547C17.9283 37.394 18.3655 37.8313 18.9049 37.8313H42.3028C43.9076 39.3416 44.5621 42.7222 44.6807 43.953C44.7281 44.4545 45.1491 44.8376 45.6529 44.8376H49.0234C49.5628 44.8376 50 44.4003 50 43.8611V27.7472ZM6.9126 17.9739C6.92715 17.5578 6.87012 17.1278 7.21299 16.8218C7.55791 16.514 7.97168 16.6149 8.39043 16.6446C9.31309 16.7099 10.0905 17.0665 10.6387 17.6759L14.1968 21.6314C14.7735 22.2724 15.0502 23.166 14.9757 24.1471C14.9471 24.5249 14.9539 24.8597 14.6355 25.1262C14.3446 25.3698 14.0289 25.3244 13.6787 25.3139C12.6951 25.2844 11.8358 24.9151 11.2591 24.274L7.70098 20.3186C7.12549 19.6787 6.88291 18.8235 6.9126 17.9739ZM1.95312 25.3275V12.69C1.95312 12.3496 2.23008 12.0726 2.57051 12.0726H4.33955C4.67998 12.0726 4.95693 12.3496 4.95693 12.69V25.3274H1.95312V25.3275ZM6.91016 22.3596L9.57988 25.3275H6.91016V22.3596ZM3.45508 7.11558C4.2832 7.11558 4.95703 7.78931 4.95703 8.61753C4.95703 9.44575 4.2833 10.1195 3.45508 10.1195C2.62686 10.1195 1.95312 9.44575 1.95312 8.61753C1.95312 7.78931 2.62686 7.11558 3.45508 7.11558ZM3.49629 42.8845H1.95312V37.8314H5.22773C4.1709 39.5614 3.69297 41.7015 3.49629 42.8845ZM17.7186 30.6029C17.2899 30.6029 16.9412 30.2541 16.9412 29.8255L16.9408 24.6664H41.9207C43.9166 24.6664 45.5411 24.9795 46.7488 25.5971C47.5495 26.0065 48.0469 26.8303 48.0469 27.7472V29.8218C48.0469 29.8231 48.0467 29.8244 48.0467 29.8256C48.0467 30.2542 47.6979 30.603 47.2693 30.603H17.7186V30.6029ZM46.5038 42.8845C46.307 41.7015 45.8291 39.5615 44.7724 37.8314H48.0469V42.8845H46.5038Z" fill="#C9C9C9"/>
<path d="M15.5106 36.4813C15.3085 35.9888 14.7254 35.7506 14.2352 35.9531C13.7432 36.1563 13.5033 36.7368 13.7069 37.2285C13.9104 37.72 14.4908 37.9604 14.9823 37.7568C15.4728 37.5536 15.7148 36.9719 15.5106 36.4813Z" fill="#C9C9C9"/>
</g>
<defs>
<clipPath id="clip0">
<rect width="50" height="50" fill="white"/>
</clipPath>
</defs>
</svg>
