<svg width="92" height="92" viewBox="0 0 92 92" fill="none" xmlns="http://www.w3.org/2000/svg">
<path d="M29.8281 26.9531C28.8363 26.9531 28.0312 27.7581 28.0312 28.75C28.0312 29.7419 28.8363 30.5469 29.8281 30.5469C30.82 30.5469 31.625 29.7419 31.625 28.75C31.625 27.7581 30.82 26.9531 29.8281 26.9531Z" fill="white"/>
<path d="M71.1562 32.3438V25.1562C71.1562 11.2565 59.9076 0 46 0C32.1288 0 20.8438 11.2851 20.8438 25.1562V32.3438C20.8438 44.2718 29.1915 54.4212 40.6094 56.9191V75.8319C38.8511 77.154 37.6375 79.0779 37.1982 81.2188H31.625C28.6526 81.2188 26.2344 83.637 26.2344 86.6094V90.2031C26.2344 91.1954 27.0388 92 28.0312 92H63.9688C64.961 92 65.7656 91.1954 65.7656 90.2031V86.6094C65.7656 83.637 63.3474 81.2188 60.375 81.2188H54.8016C54.3623 79.0779 53.1489 77.154 51.3906 75.8319V56.9189C62.8137 54.4196 71.1562 44.2669 71.1562 32.3438ZM53.1875 84.8125H60.375C61.3658 84.8125 62.1719 85.6186 62.1719 86.6094V88.4062H29.8281V86.6094C29.8281 85.6186 30.6342 84.8125 31.625 84.8125H38.8125C39.8049 84.8125 40.6094 84.0079 40.6094 83.0156C40.6094 81.0872 41.6501 79.2934 43.3257 78.3344L43.3261 78.3342C44.1365 77.8703 45.0611 77.625 46 77.625C49.0218 77.625 51.3906 80.0907 51.3906 83.0156C51.3906 84.0079 52.1953 84.8125 53.1875 84.8125ZM44.2031 74.2145V57.4342C44.8009 57.4766 45.4011 57.5002 46 57.5002C46.5989 57.5002 47.1991 57.4766 47.7969 57.4342V74.2145C47.2075 74.0943 46.6057 74.0312 46 74.0312C45.3945 74.0312 44.7925 74.0943 44.2031 74.2145ZM46.1797 53.9089C33.9401 54.0051 24.4375 43.9196 24.4375 32.3438V25.1562C24.4375 13.2667 34.1104 3.59375 46 3.59375C57.914 3.59375 67.5625 13.2356 67.5625 25.1562V32.3438C67.5625 44.2202 57.8455 53.8175 46.1797 53.9089Z" fill="white"/>
<path d="M46 7.1875C37.7876 7.1875 30.4667 12.8681 28.5928 20.695H28.593C28.5549 20.8315 28.5184 20.9895 28.4812 21.148C28.2471 22.1084 28.833 23.0783 29.7935 23.317C30.7559 23.5572 31.7314 22.97 31.9709 22.0069L31.9918 21.9194C33.6116 14.9768 39.6865 10.7812 46 10.7812C53.9264 10.7812 60.375 17.2299 60.375 25.1562V32.3438C60.375 40.2701 53.9264 46.7188 46 46.7188C39.8317 46.7188 33.6594 42.6966 31.9702 35.491C31.7303 34.5314 30.7604 33.9491 29.8005 34.1845C28.8399 34.4197 28.2507 35.3898 28.481 36.3517C28.5168 36.5042 28.5543 36.6676 28.5928 36.805H28.5926C30.4667 44.6319 37.7876 50.3125 46 50.3125C55.9082 50.3125 63.9688 42.2519 63.9688 32.3438V25.1562C63.9688 15.2481 55.9082 7.1875 46 7.1875ZM31.967 21.8759C31.995 21.816 32.02 21.7546 32.0413 21.6919C32.0246 21.7425 31.9998 21.806 31.967 21.8759ZM31.967 35.6241C31.9998 35.694 32.0245 35.7575 32.0413 35.8081C32.02 35.7454 31.9952 35.684 31.967 35.6241Z" fill="white"/>
<path d="M46 17.9688H40.6094C39.617 17.9688 38.8125 18.7734 38.8125 19.7656C38.8125 25.519 38.8125 32.0846 38.8125 37.7344C38.8125 38.7266 39.617 39.5312 40.6094 39.5312C41.6018 39.5312 42.4062 38.7266 42.4062 37.7344V32.3438H46C49.9707 32.3438 53.1875 29.1277 53.1875 25.1562C53.1875 21.1931 49.9632 17.9688 46 17.9688ZM46 28.75H42.4062V21.5625H46C47.9816 21.5625 49.5938 23.1747 49.5938 25.1562C49.5938 27.1411 47.9848 28.75 46 28.75Z" fill="#71AE4D"/>
</svg>
